2.5Hzhigh3min_grf.mot
version=1
nRows=20
nColumns 19
inDegrees=yes
endheader
time	1_ground_force_vx	1_ground_force_vy	1_ground_force_vz	1_ground_force_px	1_ground_force_py	1_ground_force_pz	1_ground_torque_x	1_ground_torque_y	1_ground_torque_z	2_ground_force_vx	2_ground_force_vy	2_ground_force_vz	2_ground_force_px	2_ground_force_py	2_ground_force_pz	2_ground_torque_x	2_ground_torque_y	2_ground_torque_z
            2.502500	            5.923178	          799.967412	          -26.300242	           -0.222646	            0.006219	           -0.404035	            0.012484	            1.685996	           -0.055430	            3.830137	          751.107329	           70.348356	           -0.235942	            0.005600	           -0.688802	           -0.023191	           -4.547777	           -0.425943
            2.503000	            6.567901	          787.708291	          -26.079261	           -0.222318	            0.006219	           -0.404024	            0.015107	            1.811814	           -0.059985	            3.918988	          739.326357	           69.086154	           -0.235874	            0.005601	           -0.688933	           -0.024140	           -4.554133	           -0.425560
            2.503500	            7.076008	          774.186134	          -25.588214	           -0.222286	            0.006221	           -0.404312	            0.017651	            1.931171	           -0.063829	            3.778886	          726.071581	           67.771874	           -0.235789	            0.005600	           -0.688670	           -0.023517	           -4.518599	           -0.421768
            2.504000	            6.987779	          762.106062	          -25.135360	           -0.222044	            0.006220	           -0.404138	            0.016965	            1.850283	           -0.061025	            4.012959	          713.001903	           66.551933	           -0.235854	            0.005600	           -0.688596	           -0.025428	           -4.517913	           -0.421704
            2.504500	            7.542460	          748.943130	          -24.321889	           -0.221993	            0.006221	           -0.404300	            0.018068	            1.794122	           -0.058264	            4.524583	          700.855724	           64.818956	           -0.235514	            0.005601	           -0.688605	           -0.029429	           -4.558516	           -0.421596
            2.505000	            6.859621	          737.581449	          -23.268337	           -0.221769	            0.006220	           -0.404249	            0.014414	            1.549863	           -0.048893	            4.284841	          689.257602	           63.604478	           -0.235532	            0.005601	           -0.688750	           -0.027533	           -4.429016	           -0.408708
            2.505500	            7.231449	          725.318539	          -22.175411	           -0.221693	            0.006220	           -0.404194	            0.013158	            1.319772	           -0.040350	            4.238062	          676.184901	           62.947802	           -0.235397	            0.005601	           -0.688615	           -0.027675	           -4.415595	           -0.411059
            2.506000	            7.418376	          712.697876	          -21.725559	           -0.221498	            0.006221	           -0.404327	            0.014429	            1.386183	           -0.042256	            4.094678	          663.850433	           61.730656	           -0.235277	            0.005602	           -0.688576	           -0.026362	           -4.273879	           -0.397423
            2.506500	            7.926936	          700.436369	          -20.953965	           -0.221284	            0.006220	           -0.404206	            0.016268	            1.437455	           -0.043002	            3.860376	          650.778059	           60.792490	           -0.235174	            0.005601	           -0.688343	           -0.024787	           -4.178595	           -0.390344
            2.507000	            8.388107	          688.537879	          -20.776839	           -0.221260	            0.006221	           -0.404257	            0.018602	            1.526954	           -0.046076	            4.226174	          640.104407	           59.158686	           -0.234983	            0.005603	           -0.688624	           -0.028101	           -4.256160	           -0.393356
            2.507500	            8.895675	          676.097967	          -20.418721	           -0.220919	            0.006221	           -0.404391	            0.020693	            1.572732	           -0.047498	            4.271518	          627.402334	           57.940146	           -0.234944	            0.005602	           -0.688263	           -0.029214	           -4.290922	           -0.396263
            2.508000	            9.036628	          664.198235	          -19.965664	           -0.220836	            0.006221	           -0.404351	            0.019216	            1.412422	           -0.042457	            4.502707	          615.071060	           56.206632	           -0.234636	            0.005603	           -0.688221	           -0.031459	           -4.297294	           -0.392697
            2.508500	            8.857361	          653.558820	          -19.139551	           -0.220686	            0.006220	           -0.404115	            0.015839	            1.168712	           -0.034226	            4.636373	          603.843075	           54.852524	           -0.234561	            0.005603	           -0.688256	           -0.032899	           -4.284724	           -0.389220
            2.509000	            8.953528	          641.477136	          -18.274448	           -0.220567	            0.006220	           -0.404113	            0.014050	            1.006633	           -0.028677	            4.304260	          591.876212	           53.636772	           -0.234431	            0.005603	           -0.688167	           -0.030561	           -4.202464	           -0.380834
            2.509500	            9.003461	          630.297073	          -17.497080	           -0.220393	            0.006220	           -0.404017	            0.015226	            1.065924	           -0.029590	            4.109415	          580.830408	           52.518102	           -0.234298	            0.005604	           -0.688177	           -0.028826	           -4.074239	           -0.368389
            2.510000	            9.786444	          618.397194	          -16.953902	           -0.220235	            0.006221	           -0.404195	            0.018954	            1.197677	           -0.032835	            3.589985	          568.862198	           51.490142	           -0.234200	            0.005603	           -0.687947	           -0.024683	           -3.911265	           -0.354025
            2.510500	           10.248070	          606.497918	          -16.593353	           -0.220124	            0.006221	           -0.404393	            0.022420	            1.326871	           -0.036302	            3.960682	          556.897492	           50.414876	           -0.233986	            0.005603	           -0.687724	           -0.028683	           -4.033051	           -0.365104
            2.511000	           10.709516	          594.959431	          -16.277113	           -0.219773	            0.006221	           -0.404265	            0.022897	            1.272022	           -0.034800	            3.904831	          546.222195	           48.781251	           -0.233936	            0.005604	           -0.687930	           -0.028351	           -3.965829	           -0.354175
            2.511500	           10.941581	          585.583694	          -15.859317	           -0.219800	            0.006219	           -0.403800	            0.021673	            1.159930	           -0.031414	            4.269279	          535.916870	           47.101832	           -0.233855	            0.005605	           -0.688044	           -0.032519	           -4.082117	           -0.358778
            2.512000	           11.038141	          572.600258	          -14.906367	           -0.219498	            0.006222	           -0.404512	            0.019019	            0.986595	           -0.025684	            4.263122	          524.503796	           45.887912	           -0.233670	            0.005603	           -0.687384	           -0.033536	           -4.126054	           -0.360981
